<svg version="1.1" id="Layer_1" xmlns="http://www.w3.org/2000/svg" xmlns:xlink="http://www.w3.org/1999/xlink" x="0px" y="0px"
	 width="100%" viewBox="0 0 512 512" enable-background="new 0 0 512 512" xml:space="preserve">
<path fill="#00D100" opacity="1.000000" stroke="none" 
	d="
M277.884644,400.041656 
	C271.594666,389.733734 266.124390,378.791595 258.780121,369.299408 
	C251.686996,360.131744 243.459763,351.413086 234.274673,344.405792 
	C223.819901,336.429810 212.006485,330.086639 200.318451,323.914581 
	C187.102631,316.935730 172.755203,312.893463 157.901810,311.053040 
	C149.934570,310.065826 141.902084,309.258423 133.885437,309.111023 
	C125.304024,308.953278 116.701622,310.039642 108.117165,309.925201 
	C87.992310,309.656921 70.114037,303.470032 54.492287,290.214233 
	C40.052654,277.961456 31.527992,262.485596 28.189106,244.386795 
	C24.287579,223.238113 29.614763,203.626221 42.323944,186.413834 
	C56.809334,166.795868 77.107590,156.181839 100.532173,151.007217 
	C129.606628,144.584503 155.032532,153.280167 178.474655,169.991867 
	C194.407837,181.350494 207.623520,195.481613 219.390259,210.969299 
	C230.768921,225.946198 240.858978,241.780151 248.956085,258.799164 
	C258.759674,279.405029 265.977936,300.951233 270.896851,323.188232 
	C274.429413,339.157715 277.512421,355.269257 279.781281,371.459595 
	C281.125977,381.055298 280.499725,390.927246 279.885803,400.525513 
	C278.636108,400.264618 278.260376,400.153137 277.884644,400.041656 
z"/>
<path fill="#00D100" opacity="1.000000" stroke="none" 
	d="
M281.574829,315.969421 
	C280.764526,315.036713 279.990784,314.072418 280.059509,313.172424 
	C280.958496,301.404541 281.631592,289.604187 283.041962,277.893951 
	C285.448517,257.912750 291.310913,238.766571 297.956635,219.833588 
	C305.087097,199.519470 315.389862,180.921265 328.623535,164.039032 
	C335.608307,155.128540 343.005188,146.403625 351.159576,138.578201 
	C364.912933,125.379745 380.825714,115.495445 399.991119,112.075623 
	C414.337280,109.515724 428.226227,111.991516 441.567596,117.293869 
	C459.462036,124.405792 473.592041,135.983002 481.427490,153.982452 
	C490.976013,175.917175 488.232422,196.729416 474.393799,216.063217 
	C464.255493,230.227310 450.094696,238.773148 433.243347,241.582184 
	C423.338135,243.233307 412.929932,241.613998 402.782166,242.133911 
	C392.506378,242.660385 382.115784,243.206161 372.054077,245.170456 
	C352.442139,248.999207 334.663513,257.490845 318.877045,269.731079 
	C304.201263,281.110168 292.717651,295.257080 284.480011,311.971191 
	C283.790405,313.370422 282.834961,314.638641 281.574829,315.969421 
z"/>
<path fill="#00D100" opacity="1.000000" stroke="none" 
	d="
M277.938354,400.370789 
	C278.260376,400.153137 278.636108,400.264618 279.486267,400.734375 
	C279.304504,400.961761 278.648285,400.830841 277.938354,400.370789 
z"/>
</svg>